<svg width="118" height="28" viewBox="0 0 118 28" fill="none" xmlns="http://www.w3.org/2000/svg">
<path d="M113.273 6.3C113.643 6.3 113.903 6.23333 114.053 6.1C114.203 5.96333 114.278 5.76833 114.278 5.515C114.278 5.39167 114.261 5.28333 114.228 5.19C114.198 5.09667 114.146 5.02 114.073 4.96C114.003 4.9 113.908 4.855 113.788 4.825C113.671 4.795 113.526 4.78 113.353 4.78H112.698V6.3H113.273ZM113.353 4.18C113.929 4.18 114.354 4.285 114.628 4.495C114.904 4.70167 115.043 5.00833 115.043 5.415C115.043 5.72833 114.954 5.995 114.778 6.215C114.601 6.435 114.336 6.585 113.983 6.665C114.039 6.70167 114.088 6.745 114.128 6.795C114.171 6.845 114.211 6.90333 114.248 6.97L115.388 8.64H114.643C114.533 8.64 114.453 8.59833 114.403 8.515L113.393 7.005C113.363 6.96167 113.326 6.92833 113.283 6.905C113.243 6.88167 113.179 6.87 113.093 6.87H112.698V8.64H111.918V4.18H113.353ZM113.413 9.62C113.706 9.62 113.988 9.58333 114.258 9.51C114.531 9.43333 114.784 9.32667 115.018 9.19C115.254 9.05 115.468 8.88333 115.658 8.69C115.851 8.49667 116.016 8.28167 116.153 8.045C116.289 7.805 116.394 7.54833 116.468 7.275C116.544 7.00167 116.583 6.71667 116.583 6.42C116.583 5.97333 116.499 5.555 116.333 5.165C116.169 4.77167 115.944 4.43 115.658 4.14C115.374 3.84667 115.039 3.61667 114.653 3.45C114.266 3.28 113.853 3.195 113.413 3.195C113.119 3.195 112.838 3.23333 112.568 3.31C112.298 3.38667 112.046 3.495 111.813 3.635C111.583 3.77167 111.371 3.93833 111.178 4.135C110.988 4.33167 110.824 4.55 110.688 4.79C110.554 5.02667 110.451 5.28333 110.378 5.56C110.304 5.83667 110.268 6.12333 110.268 6.42C110.268 6.71667 110.304 7.00167 110.378 7.275C110.451 7.54833 110.554 7.805 110.688 8.045C110.824 8.28167 110.988 8.49667 111.178 8.69C111.371 8.88333 111.583 9.05 111.813 9.19C112.046 9.32667 112.298 9.43333 112.568 9.51C112.838 9.58333 113.119 9.62 113.413 9.62ZM113.413 2.76C113.749 2.76 114.073 2.80333 114.383 2.89C114.696 2.97667 114.988 3.1 115.258 3.26C115.528 3.42 115.774 3.61167 115.998 3.835C116.221 4.055 116.411 4.30167 116.568 4.575C116.728 4.845 116.851 5.13667 116.938 5.45C117.024 5.76 117.068 6.08333 117.068 6.42C117.068 6.75333 117.024 7.07667 116.938 7.39C116.851 7.7 116.728 7.99 116.568 8.26C116.411 8.53 116.221 8.77667 115.998 9C115.774 9.22 115.528 9.41 115.258 9.57C114.988 9.73 114.696 9.85333 114.383 9.94C114.073 10.0267 113.749 10.07 113.413 10.07C113.076 10.07 112.753 10.0267 112.443 9.94C112.133 9.85333 111.843 9.73 111.573 9.57C111.303 9.41 111.056 9.22 110.833 9C110.613 8.77667 110.423 8.53 110.263 8.26C110.103 7.99 109.979 7.7 109.893 7.39C109.806 7.08 109.763 6.75667 109.763 6.42C109.763 6.08333 109.806 5.76 109.893 5.45C109.979 5.13667 110.103 4.845 110.263 4.575C110.423 4.30167 110.613 4.055 110.833 3.835C111.056 3.61167 111.303 3.42 111.573 3.26C111.843 3.1 112.133 2.97667 112.443 2.89C112.753 2.80333 113.076 2.76 113.413 2.76Z" fill="#515E74"/>
<path d="M12.1016 13.9821L12.5543 11.9648L14.2397 12.2967L13.8784 14.3506L12.1016 13.9821Z" fill="#202C3D"/>
<path d="M12.9219 10.2862L13.1769 9.27942C13.2602 8.94453 13.3429 8.6087 13.4182 8.2793L14.7188 8.50542C14.6681 8.85866 14.6125 9.20347 14.5561 9.54881L14.3831 10.5809L12.922 10.2862H12.9219Z" fill="#202C3D"/>
<path d="M5.2892 24.811L5.32153 28.0006L5.63537 27.9791L5.9166 27.9544C6.11046 27.9365 6.31312 27.9165 6.53876 27.8858C6.65049 27.871 6.77129 27.8514 6.89457 27.8289C7.0206 27.8043 7.14951 27.7773 7.28118 27.7419C7.5448 27.6733 7.79604 27.5799 8.00861 27.4894L6.84971 24.6133C6.36018 24.742 5.8401 24.808 5.28906 24.811H5.2892Z" fill="#202C3D"/>
<path d="M8.73575 23.7086C8.59582 23.8128 8.45177 23.9086 8.30469 23.9976L9.96812 26.3788C10.3236 26.1215 10.6732 25.8211 10.9854 25.4833C11.1415 25.3147 11.2872 25.1372 11.4212 24.9556C11.4886 24.8649 11.5519 24.7729 11.6134 24.6802C11.6734 24.5882 11.7287 24.4972 11.7858 24.4055L9.51642 22.9941C9.28775 23.2525 9.02798 23.4911 8.73575 23.7084V23.7086Z" fill="#202C3D"/>
<path d="M10.616 20.7714C10.5514 21.0767 10.463 21.367 10.3516 21.6424L12.541 22.2243C12.6237 21.8581 12.6919 21.5038 12.7561 21.1528C12.8199 20.8021 12.8791 20.4552 12.937 20.1093L10.8579 19.6699L10.616 20.7713V20.7714Z" fill="#202C3D"/>
<path d="M11.705 15.791L11.2578 17.8274L13.3117 18.2533L13.6465 16.1964L11.705 15.791Z" fill="#202C3D"/>
<path d="M2.27375 23.6907C2.2604 23.6756 2.24761 23.6602 2.23467 23.6448C2.22477 23.6343 2.21486 23.6239 2.20496 23.6133L0.398438 26.442C0.696726 26.7089 1.03368 26.9418 1.34765 27.1312C1.82219 27.4187 2.31503 27.6155 2.79397 27.7504L3.84871 24.6334C3.19641 24.4562 2.67138 24.1421 2.27389 23.6906L2.27375 23.6907Z" fill="#202C3D"/>
<path d="M5.24717 21.101C5.39232 21.278 5.61948 21.3664 5.92891 21.3664C6.6196 21.3664 7.03759 21.0392 7.1833 20.3842L9.61033 9.23427C9.6827 8.93357 9.64184 8.69463 9.4876 8.51742C9.33296 8.34076 9.10112 8.25195 8.79224 8.25195C8.11944 8.25195 7.71039 8.57957 7.5651 9.23427L5.13806 20.3842C5.06514 20.6853 5.10147 20.9243 5.24717 21.101Z" fill="#202C3D"/>
<path d="M13.7487 3.82764C13.1517 3.40345 12.5075 3.09151 11.8063 2.8827C11.1922 2.67991 10.5679 2.6183 9.94273 2.59526C6.93109 2.5011 4.54959 3.63356 2.86883 6.07918C2.35976 6.83339 2.09352 7.70829 1.92264 8.57435C1.69494 9.63529 1.02021 14.7231 0.843684 15.8973C0.580755 17.8094 0.250271 19.8055 0 21.7236L1.44054 21.9499L2.33458 17.8676L2.91024 15.2113L4.10326 9.71779C4.15444 9.4917 4.21099 9.26749 4.28584 9.04756C4.35614 8.84102 4.43952 8.63864 4.53638 8.44255C4.63146 8.25035 4.7396 8.06417 4.86026 7.88603C4.98065 7.70816 5.11356 7.53845 5.25748 7.37799C5.40373 7.21499 5.56127 7.06163 5.72803 6.91844C5.82021 6.83929 5.91514 6.76334 6.01256 6.69048C6.99438 5.95622 8.1486 5.58869 9.4759 5.58869C10.8032 5.58869 11.7982 5.95622 12.4621 6.69048C12.4739 6.7036 12.4853 6.717 12.4969 6.73039L14.1695 4.1562C14.0353 4.03994 13.8951 3.92984 13.7487 3.82738V3.82764Z" fill="#202C3D"/>
<path d="M30.7856 6.41423L30.0462 9.78486H28.3032L25.1077 24.4252H21.3049L24.5003 9.78486H21.0859L23.4968 6.41423H30.7856Z" fill="#202C3D"/>
<path d="M37.1788 6.41423H40.9816L37.0467 24.4252H33.2439L34.8812 16.9121H33.508L31.8706 24.4252H28.0678L32.0027 6.41423H35.8055L34.221 13.6701H35.5942L37.1788 6.41423Z" fill="#202C3D"/>
<path d="M48.2937 9.78486H45.6264L44.7813 13.6701H47.1581L46.4451 16.9121H44.0683L43.1704 21.0546H45.8377L45.0982 24.4252H38.6281L42.563 6.41423H49.0331L48.2937 9.78486Z" fill="#202C3D"/>
<path d="M54.873 24.734C53.5349 24.734 52.5314 24.3738 51.8624 23.6533C51.211 22.9157 51.0085 21.938 51.255 20.7201L53.5789 10.1193C53.843 8.91861 54.4592 7.94945 55.4275 7.21186C56.4135 6.47427 57.5842 6.10547 58.9399 6.10547C60.2955 6.10547 61.2991 6.47427 61.9505 7.21186C62.6195 7.94945 62.8132 8.91861 62.5315 10.1193L60.2339 20.7201C59.9698 21.9208 59.3448 22.89 58.3589 23.6276C57.3906 24.3652 56.2286 24.734 54.873 24.734ZM55.6124 21.3634C56.0349 21.3634 56.3078 21.1489 56.4311 20.7201L58.7286 10.1193C58.7814 9.93066 58.755 9.77628 58.6494 9.65621C58.5438 9.53613 58.3941 9.4761 58.2004 9.4761C57.7427 9.4761 57.4698 9.69051 57.3818 10.1193L55.0578 20.7201C54.9698 21.1489 55.1546 21.3634 55.6124 21.3634Z" fill="#202C3D"/>
<path d="M65.305 24.734C63.9669 24.734 62.9634 24.3738 62.2944 23.6533C61.643 22.9157 61.4493 21.938 61.7134 20.7201L64.8296 6.41423H68.6325L65.5163 20.7201C65.4634 20.9088 65.4898 21.0632 65.5955 21.1832C65.7011 21.3033 65.8508 21.3634 66.0444 21.3634C66.5022 21.3634 66.7751 21.1489 66.8631 20.7201L70.0057 6.41423H73.8086L70.6659 20.7201C70.4018 21.9208 69.7768 22.89 68.7909 23.6276C67.8226 24.3652 66.6606 24.734 65.305 24.734Z" fill="#202C3D"/>
<path d="M82.2587 6.41423L81.5193 9.78486H79.7763L76.5809 24.4252H72.778L75.9735 9.78486H74.2305L74.9699 6.41423H82.2587Z" fill="#202C3D"/>
<path d="M79.5409 24.4252L83.4758 6.41423H87.2786L83.3437 24.4252H79.5409Z" fill="#202C3D"/>
<path d="M89.1159 24.734C87.7778 24.734 86.7743 24.3738 86.1053 23.6533C85.4539 22.9157 85.2602 21.938 85.5243 20.7201L86.1053 18.0699H89.9081L89.3271 20.7201C89.2743 20.9088 89.3007 21.0632 89.4064 21.1832C89.512 21.3033 89.6617 21.3634 89.8553 21.3634C90.3131 21.3634 90.586 21.1489 90.674 20.7201L91.1229 18.6874C91.1934 18.3444 91.0877 18.0185 90.806 17.7097C90.5243 17.3838 90.1634 17.075 89.7233 16.7834C89.3007 16.4918 88.8782 16.1659 88.4557 15.8057C88.0331 15.4283 87.7074 14.9394 87.4785 14.3391C87.2673 13.7387 87.2409 13.0526 87.3993 12.2807L87.8747 10.1193C88.1564 8.90146 88.7726 7.9323 89.7233 7.21186C90.6916 6.47427 91.8448 6.10547 93.1828 6.10547C94.5208 6.10547 95.5156 6.47427 96.167 7.21186C96.8184 7.94945 97.0121 8.91861 96.748 10.1193L96.2198 12.4608H92.417L92.9715 10.0679C93.0244 9.67336 92.8483 9.4761 92.4434 9.4761C92.0384 9.4761 91.792 9.67336 91.7039 10.0679L91.3078 11.8433C91.2374 12.1863 91.343 12.5122 91.6247 12.821C91.9064 13.1298 92.2673 13.4385 92.7075 13.7473C93.1476 14.0389 93.5789 14.3648 94.0015 14.725C94.424 15.0852 94.7409 15.5741 94.9522 16.1916C95.1635 16.792 95.1899 17.4695 95.0314 18.2243L94.4768 20.7201C94.2127 21.9208 93.5877 22.89 92.6018 23.6276C91.6335 24.3652 90.4715 24.734 89.1159 24.734Z" fill="#202C3D"/>
<path d="M107.539 6.41423L105.128 9.78486H103.385L100.19 24.4252H96.3869L99.5824 9.78486H97.8394L98.5788 6.41423H107.539Z" fill="#202C3D"/>
</svg>
